<svg xmlns="http://www.w3.org/2000/svg" width="24" height="10.76" viewBox="0 0 24 10.76">
  <path id="Icon_material-all-inclusive" data-name="Icon material-all-inclusive" d="M18.6,9.93a5.331,5.331,0,0,0-3.77,1.53L12,13.97l-1.52,1.34h.01L7.8,17.7a3.386,3.386,0,1,1-2.4-5.77,3.4,3.4,0,0,1,2.44,1.03l1.13,1,1.51-1.34L9.22,11.51a5.38,5.38,0,1,0-.05,7.65L12,16.66l.01.01,1.51-1.36h-.01l2.69-2.39a3.386,3.386,0,1,1,2.4,5.77,3.416,3.416,0,0,1-2.44-1.03l-1.14-1.01-1.51,1.34,1.27,1.12A5.389,5.389,0,1,0,18.6,9.93Z" transform="translate(0 -9.93)" fill="#fff"/>
</svg>
