<svg id="Group_30" data-name="Group 30" xmlns="http://www.w3.org/2000/svg" xmlns:xlink="http://www.w3.org/1999/xlink" width="12" height="7" viewBox="0 0 12 7">
  <defs>
    <clipPath id="clip-path">
      <path id="fill" d="M6,4.586,10.293.293a1,1,0,0,1,1.414,1.414l-5,5a1,1,0,0,1-1.414,0l-5-5A1,1,0,0,1,1.707.293Z" fill="#fff"/>
    </clipPath>
  </defs>
  <path id="fill-2" data-name="fill" d="M6,4.586,10.293.293a1,1,0,0,1,1.414,1.414l-5,5a1,1,0,0,1-1.414,0l-5-5A1,1,0,0,1,1.707.293Z" fill="#fff"/>
</svg>
