<svg xmlns="http://www.w3.org/2000/svg" width="24" height="21.6" viewBox="0 0 24 21.6">
  <g id="Icon_material-pool" data-name="Icon material-pool" transform="translate(-3 -4.5)">
    <path id="Path_1" data-name="Path 1" d="M27,26.1a4.59,4.59,0,0,1-2.616-.768A2.253,2.253,0,0,0,23,24.9a2.155,2.155,0,0,0-1.38.432,4.839,4.839,0,0,1-5.232,0,2.253,2.253,0,0,0-1.38-.432,2.155,2.155,0,0,0-1.38.432A4.669,4.669,0,0,1,11,26.1a4.59,4.59,0,0,1-2.616-.768,2.179,2.179,0,0,0-1.38-.432,2.179,2.179,0,0,0-1.38.432A4.669,4.669,0,0,1,3,26.1V23.7a2.155,2.155,0,0,0,1.38-.432A4.669,4.669,0,0,1,7.008,22.5a4.59,4.59,0,0,1,2.616.768A2.155,2.155,0,0,0,11,23.7a2.155,2.155,0,0,0,1.38-.432,4.669,4.669,0,0,1,2.628-.768,4.59,4.59,0,0,1,2.616.768,2.253,2.253,0,0,0,1.38.432,2.179,2.179,0,0,0,1.38-.432,4.839,4.839,0,0,1,5.232,0A2.155,2.155,0,0,0,27,23.7Zm0-5.4a4.59,4.59,0,0,1-2.616-.768A2.253,2.253,0,0,0,23,19.5a2.155,2.155,0,0,0-1.38.432,4.839,4.839,0,0,1-5.232,0,2.253,2.253,0,0,0-1.38-.432,2.155,2.155,0,0,0-1.38.432,4.59,4.59,0,0,1-2.616.768A4.59,4.59,0,0,1,8.4,19.932,2.253,2.253,0,0,0,7.02,19.5a2.179,2.179,0,0,0-1.38.432A4.749,4.749,0,0,1,3,20.7V18.3a2.155,2.155,0,0,0,1.38-.432A4.59,4.59,0,0,1,7,17.1a4.59,4.59,0,0,1,2.616.768,2.253,2.253,0,0,0,1.38.432,2.155,2.155,0,0,0,1.38-.432,4.839,4.839,0,0,1,5.232,0,2.253,2.253,0,0,0,1.38.432,2.179,2.179,0,0,0,1.38-.432,4.839,4.839,0,0,1,5.232,0,2.253,2.253,0,0,0,1.38.432v2.4ZM11,15.3a2.155,2.155,0,0,0,1.38-.432,4.669,4.669,0,0,1,2.628-.768,4.59,4.59,0,0,1,2.616.768,2.253,2.253,0,0,0,1.38.432,2.179,2.179,0,0,0,1.38-.432c.144-.084.312-.18.492-.276L13.176,6.9C11.316,5.04,9.6,4.488,6.6,4.5v3a5.9,5.9,0,0,1,4.8,1.8l1.2,1.2L8.7,14.4a6.566,6.566,0,0,1,.924.468A2.155,2.155,0,0,0,11,15.3Z" transform="translate(0 0)" fill="#fff"/>
    <path id="Path_2" data-name="Path 2" d="M29.438,8.719A4.219,4.219,0,1,1,25.219,4.5,4.219,4.219,0,0,1,29.438,8.719Z" transform="translate(-6.76 0)" fill="#fff"/>
  </g>
</svg>
