<svg xmlns="http://www.w3.org/2000/svg" width="62.15" height="12" viewBox="0 0 62.15 12">
  <g id="Group_134" data-name="Group 134" transform="translate(-48 -660)">
    <path id="Icon_awesome-star" data-name="Icon awesome-star" d="M7.038.417l-1.53,3.1-3.424.5A.75.75,0,0,0,1.669,5.3L4.146,7.712l-.586,3.41a.749.749,0,0,0,1.087.79L7.71,10.3l3.063,1.61a.75.75,0,0,0,1.087-.79l-.586-3.41L13.752,5.3a.75.75,0,0,0-.415-1.28l-3.424-.5L8.383.417a.751.751,0,0,0-1.345,0Z" transform="translate(96.171 660.001)" fill="#04bfad"/>
    <path id="Icon_awesome-star-2" data-name="Icon awesome-star" d="M7.038.417l-1.53,3.1-3.424.5A.75.75,0,0,0,1.669,5.3L4.146,7.712l-.586,3.41a.749.749,0,0,0,1.087.79L7.71,10.3l3.063,1.61a.75.75,0,0,0,1.087-.79l-.586-3.41L13.752,5.3a.75.75,0,0,0-.415-1.28l-3.424-.5L8.383.417a.751.751,0,0,0-1.345,0Z" transform="translate(79.634 660.001)" fill="#04bfad"/>
    <path id="Icon_awesome-star-3" data-name="Icon awesome-star" d="M7.038.417l-1.53,3.1-3.424.5A.75.75,0,0,0,1.669,5.3L4.146,7.712l-.586,3.41a.749.749,0,0,0,1.087.79L7.71,10.3l3.063,1.61a.75.75,0,0,0,1.087-.79l-.586-3.41L13.752,5.3a.75.75,0,0,0-.415-1.28l-3.424-.5L8.383.417a.751.751,0,0,0-1.345,0Z" transform="translate(63.096 660.001)" fill="#04bfad"/>
    <path id="Icon_awesome-star-4" data-name="Icon awesome-star" d="M7.038.417l-1.53,3.1-3.424.5A.75.75,0,0,0,1.669,5.3L4.146,7.712l-.586,3.41a.749.749,0,0,0,1.087.79L7.71,10.3l3.063,1.61a.75.75,0,0,0,1.087-.79l-.586-3.41L13.752,5.3a.75.75,0,0,0-.415-1.28l-3.424-.5L8.383.417a.751.751,0,0,0-1.345,0Z" transform="translate(46.559 660.001)" fill="#04bfad"/>
  </g>
</svg>
