<svg xmlns="http://www.w3.org/2000/svg" width="24" height="16.8" viewBox="0 0 24 16.8">
  <path id="Icon_awesome-wifi" data-name="Icon awesome-wifi" d="M23.809,6.858a17.436,17.436,0,0,0-23.618,0,.6.6,0,0,0-.013.862L1.462,8.994a.609.609,0,0,0,.84.014,14.387,14.387,0,0,1,19.4,0,.609.609,0,0,0,.84-.014L23.823,7.72a.6.6,0,0,0-.014-.862ZM12,14.25a2.4,2.4,0,1,0,2.4,2.4A2.4,2.4,0,0,0,12,14.25Zm7.6-3.135a11.512,11.512,0,0,0-15.2,0,.593.593,0,0,0-.021.868L5.67,13.258a.612.612,0,0,0,.827.03,8.446,8.446,0,0,1,11.006,0,.612.612,0,0,0,.827-.03l1.292-1.275A.593.593,0,0,0,19.6,11.115Z" transform="translate(0 -2.25)" fill="#fff"/>
</svg>
