<svg id="bookingcom-logo-vector" xmlns="http://www.w3.org/2000/svg" xmlns:xlink="http://www.w3.org/1999/xlink" width="94.335" height="16.007" viewBox="0 0 94.335 16.007">
  <defs>
    <clipPath id="clip-path">
      <path id="Path_7" data-name="Path 7" d="M736.875-36.215H831.21v16.007H736.875Z" transform="translate(-736.875 36.215)" fill="#04bfad"/>
    </clipPath>
    <clipPath id="clip-path-2">
      <path id="Path_6" data-name="Path 6" d="M736.875-20.208H831.21V-36.215H736.875Z" transform="translate(-736.875 36.215)" fill="#04bfad"/>
    </clipPath>
    <clipPath id="clip-path-4">
      <path id="Path_11" data-name="Path 11" d="M736.875-35.82H831.19v15.671H736.875Z" transform="translate(-736.875 35.82)" fill="#04bfad"/>
    </clipPath>
  </defs>
  <g id="Group_143" data-name="Group 143" clip-path="url(#clip-path)">
    <g id="Group_142" data-name="Group 142" transform="translate(0 0)" clip-path="url(#clip-path-2)">
      <path id="Path_3" data-name="Path 3" d="M783.2-34.383a1.433,1.433,0,0,1,1.433-1.433,1.433,1.433,0,0,1,1.433,1.433A1.435,1.435,0,0,1,784.631-33a1.434,1.434,0,0,1-1.433-1.38" transform="translate(-746.204 36.135)" fill="#04bfad"/>
      <path id="Path_4" data-name="Path 4" d="M811.519-22.413a1.434,1.434,0,0,1,1.43-1.438,1.437,1.437,0,0,1,1.438,1.437,1.437,1.437,0,0,1-1.437,1.437,1.435,1.435,0,0,1-1.43-1.437" transform="translate(-751.908 33.725)" fill="#04bfad"/>
      <path id="Path_5" data-name="Path 5" d="M752.6-25.351a2.152,2.152,0,0,1-2.092-2.382,2.151,2.151,0,0,1,2.093-2.38,2.159,2.159,0,0,1,2.108,2.38A2.138,2.138,0,0,1,752.6-25.351Zm0-6.855a4.343,4.343,0,0,0-4.507,4.473,4.343,4.343,0,0,0,4.507,4.473,4.351,4.351,0,0,0,4.525-4.472,4.352,4.352,0,0,0-4.524-4.474m20.749,4.7a2.131,2.131,0,0,0-.341-.482l-.08-.083.084-.08a3.592,3.592,0,0,0,.36-.45l2.306-3.426h-2.8l-1.732,2.68a.674.674,0,0,1-.592.216h-.394V-34.2c0-1.013-.632-1.151-1.314-1.151h-1.168l0,11.96h2.48v-3.588h.233c.283,0,.474.033.563.187l1.368,2.581a1.375,1.375,0,0,0,1.479.82h1.9l-1.416-2.34-.938-1.777m12.036-4.718a3.373,3.373,0,0,0-2.518,1.035l-.15.152-.054-.207a1.142,1.142,0,0,0-1.251-.787h-1.111l.007,8.638h2.463v-3.981a3.2,3.2,0,0,1,.154-1.035,2.024,2.024,0,0,1,1.994-1.513c.769,0,1.069.406,1.069,1.454v3.762a1.143,1.143,0,0,0,1.31,1.313h1.172l0-5.494c0-2.182-1.065-3.336-3.081-3.336m-7.8.2h-1.167l.008,6.679v1.959h1.245l.044,0,.581,0h.577v0h0l.005-7.322a1.145,1.145,0,0,0-1.3-1.312m-15.318,6.677a2.153,2.153,0,0,1-2.093-2.382,2.152,2.152,0,0,1,2.094-2.38,2.161,2.161,0,0,1,2.108,2.38,2.138,2.138,0,0,1-2.108,2.382Zm0-6.855a4.345,4.345,0,0,0-4.51,4.473,4.344,4.344,0,0,0,4.511,4.473,4.353,4.353,0,0,0,4.525-4.472,4.354,4.354,0,0,0-4.525-4.474" transform="translate(-739.135 36.041)" fill="#04bfad"/>
    </g>
  </g>
  <g id="Group_146" data-name="Group 146" clip-path="url(#clip-path)">
    <g id="Group_145" data-name="Group 145" transform="translate(0 0.315)" clip-path="url(#clip-path-4)">
      <g id="Group_144" data-name="Group 144" transform="translate(0 -0.315)" clip-path="url(#clip-path-2)">
        <path id="Path_8" data-name="Path 8" d="M830.807-24.557a2.154,2.154,0,0,1-2.094-2.382,2.153,2.153,0,0,1,2.094-2.38,2.16,2.16,0,0,1,2.109,2.38A2.138,2.138,0,0,1,830.807-24.557Zm0-6.855a4.344,4.344,0,0,0-4.509,4.473,4.343,4.343,0,0,0,4.509,4.473,4.353,4.353,0,0,0,4.525-4.472,4.354,4.354,0,0,0-4.525-4.474" transform="translate(-754.884 35.248)" fill="#04bfad"/>
        <path id="Path_9" data-name="Path 9" d="M804.059-24.948c-1.347,0-1.826-1.174-1.826-2.275,0-.485.123-2.065,1.7-2.065.782,0,1.823.224,1.823,2.146C805.753-25.328,804.832-24.948,804.059-24.948Zm2.973-6.321a1.07,1.07,0,0,0-1.007.527l-.068.132-.114-.1a3.355,3.355,0,0,0-2.267-.752c-2.3,0-3.853,1.73-3.853,4.3s1.6,4.368,3.9,4.368a3.032,3.032,0,0,0,1.895-.555l.19-.143v.24c0,1.154-.746,1.791-2.1,1.791a4.971,4.971,0,0,1-1.657-.305.731.731,0,0,0-1.039.5l-.2.483-.277.707.171.091a6.734,6.734,0,0,0,3.012.734c2.1,0,4.546-1.073,4.546-4.094l.009-7.923h-1.145" transform="translate(-749.532 35.258)" fill="#04bfad"/>
      </g>
    </g>
  </g>
  <g id="Group_148" data-name="Group 148" clip-path="url(#clip-path)">
    <g id="Group_147" data-name="Group 147" transform="translate(0 0)" clip-path="url(#clip-path-2)">
      <path id="Path_13" data-name="Path 13" d="M741.172-25.449l-2,0v-2.4c0-.513.2-.779.637-.841h1.368a1.5,1.5,0,0,1,1.607,1.61,1.492,1.492,0,0,1-1.607,1.627Zm-2-6.465v-.631c0-.552.234-.815.746-.849h1.026a1.293,1.293,0,0,1,1.407,1.408,1.335,1.335,0,0,1-1.375,1.454h-1.8Zm4.564,2.392-.362-.2.316-.271a2.893,2.893,0,0,0,.984-2.256c0-1.881-1.458-3.095-3.715-3.095h-2.869a1.258,1.258,0,0,0-1.212,1.242v10.671h4.132c2.509,0,4.128-1.366,4.128-3.481a2.906,2.906,0,0,0-1.4-2.607" transform="translate(-736.875 36.04)" fill="#04bfad"/>
      <path id="Path_14" data-name="Path 14" d="M844.18-31.4a3.394,3.394,0,0,0-2.643,1.281l-.178.226-.14-.253a2.454,2.454,0,0,0-2.333-1.254,3.126,3.126,0,0,0-2.269,1.018l-.234.253-.09-.332a1.1,1.1,0,0,0-1.2-.742h-1.035l-.01,8.6H836.4v-3.8a4.253,4.253,0,0,1,.125-1.006c.225-.918.842-1.906,1.879-1.807.639.062.952.556.952,1.51v5.1h2.368v-3.8a3.445,3.445,0,0,1,.133-1.039,2.044,2.044,0,0,1,1.835-1.775c.725,0,.992.409.992,1.511v3.843c0,.868.387,1.258,1.257,1.258h1.106l0-5.493c0-2.2-.966-3.308-2.867-3.308m-21.4,5.814a3.63,3.63,0,0,1-2.351,1.075,2.3,2.3,0,0,1-2.44-2.407,2.275,2.275,0,0,1,2.312-2.439c.441,0,.944.158,1.023.424l.011.045a.864.864,0,0,0,.839.636l1.288,0v-1.126c0-1.485-1.89-2.024-3.16-2.024a4.448,4.448,0,0,0-4.692,4.5,4.42,4.42,0,0,0,4.642,4.5,4.882,4.882,0,0,0,3.616-1.549l.068-.084-1.02-1.692-.135.143" transform="translate(-752.732 35.246)" fill="#04bfad"/>
    </g>
  </g>
</svg>
