<svg id="expedia-logo-svg-vector" xmlns="http://www.w3.org/2000/svg" width="56.595" height="16.018" viewBox="0 0 56.595 16.018">
  <path id="path4354" d="M382.553,131.423h-1.759c-.011,0-.011,0-.017-.006l-1.514-1.849-1.514,1.849a.02.02,0,0,1-.017.006h-1.409a.029.029,0,0,1-.022-.011.034.034,0,0,1,.006-.022l2.233-2.739-2.2-2.712a.051.051,0,0,1-.006-.028c.006-.006.011-.011.017-.011H378.1c.006,0,.011.006.017.011l1.331,1.648,1.353-1.648c.006-.006.011-.011.017-.011h1.431a.042.042,0,0,1,.022.011c.006.011,0,.017-.006.028l-2.088,2.511,2.394,2.94a.033.033,0,0,1,.006.022.031.031,0,0,1-.028.011" transform="translate(-355.351 -118.891)" fill="#04bfad"/>
  <path id="path4358" d="M608.79,123a1.43,1.43,0,0,0-1.464,1.292h2.65v-.056A1.2,1.2,0,0,0,608.79,123m2.55,2.138c-.006.006-.011.011-.017.011H607.3a1.519,1.519,0,0,0,1.676,1.47,4.612,4.612,0,0,0,2.16-.69c.017-.011.033.006.033.022v1.236c0,.011-.006.017-.011.017a6.606,6.606,0,0,1-2.366.6,3,3,0,0,1,0-6,2.435,2.435,0,0,1,2.595,2.528c0,.239-.039.791-.045.807" transform="translate(-572.073 -115.019)" fill="#04bfad"/>
  <path id="path4362" d="M836.9,74.987a.889.889,0,0,1-.9-.88.9.9,0,1,1,1.793,0,.889.889,0,0,1-.9.88m-.724,6.67c-.017,0-.022-.006-.022-.022V76.151c0-.011.006-.022.017-.022h1.453c.011,0,.017.011.017.022v5.484a.02.02,0,0,1-.022.022Z" transform="translate(-789.456 -69.125)" fill="#04bfad"/>
  <path id="path4366" d="M496.833,126.728a3.42,3.42,0,0,1-.841-.117l.006-3.519a3.127,3.127,0,0,1,.986-.167,1.674,1.674,0,0,1,1.682,1.849,1.777,1.777,0,0,1-1.832,1.954m.4-4.928a3.8,3.8,0,0,0-1.258.223h-1.448a.024.024,0,0,0-.022.022v8.992a3.409,3.409,0,0,0,1.492-.585v-2.734a6.745,6.745,0,0,0,.935.084,2.951,2.951,0,0,0,3.263-3.023,2.843,2.843,0,0,0-2.962-2.979" transform="translate(-466.97 -115.019)" fill="#04bfad"/>
  <path id="path4370" d="M720.4,70.839a2.637,2.637,0,0,1-1.236.351c-.9,0-1.436-.635-1.436-1.7a1.78,1.78,0,0,1,1.748-2.021,2.185,2.185,0,0,1,.924.228Zm0-7.149v2.867a4.128,4.128,0,0,0-1.175-.178A2.954,2.954,0,0,0,716.2,69.4a2.759,2.759,0,0,0,2.728,2.962,3.538,3.538,0,0,0,1.659-.445v.5a3.309,3.309,0,0,0,1.3-.557V63.1a3.293,3.293,0,0,0-1.492.59" transform="translate(-676.326 -59.588)" fill="#04bfad"/>
  <path id="path4374" d="M884.7,126.449a2.369,2.369,0,0,1-1.147.373,1.491,1.491,0,0,1-1.537-1.7c0-1.208.679-2.021,1.687-2.021a2.253,2.253,0,0,1,1,.317Zm1.492-4.3a.062.062,0,0,0-.061-.061h-1.175a.067.067,0,0,0-.067.061v.2h-.028A3.548,3.548,0,0,0,883.4,122a2.958,2.958,0,0,0-2.9,3.074,2.723,2.723,0,0,0,2.84,2.912,1.88,1.88,0,0,0,1.581-.657v.707a3.369,3.369,0,0,0,1.269-.557Z" transform="translate(-831.478 -115.208)" fill="#04bfad"/>
  <path id="path4378" d="M278.248,73.394h3.647a3.353,3.353,0,0,1-.507,1.37H277.6a.9.9,0,0,1-.891-.813c0-.006-.006-.011-.006-.022V66.735c0-.006.006-.011.006-.017a.9.9,0,0,1,.891-.818h4.293a3.331,3.331,0,0,1-.512,1.381h-3.129v1.96h3.1a.024.024,0,0,1,.022.022v1.359a.024.024,0,0,1-.022.022h-3.1Z" transform="translate(-261.297 -62.232)" fill="#04bfad"/>
  <path id="path4382" d="M210.885,204.725a.585.585,0,0,1-.585-.629.584.584,0,1,1,.585.629m0-1.325a.7.7,0,1,0,.679.7.676.676,0,0,0-.679-.7" transform="translate(-198.5 -192.076)" fill="#04bfad"/>
  <path id="path4386" d="M217.428,208.762v-.256h.173c.089,0,.189.011.189.117,0,.128-.095.134-.2.134A1.614,1.614,0,0,1,217.428,208.762Zm.484-.122c0-.167-.1-.239-.3-.239H217.3v.824h.134v-.351h.128l.212.351h.156l-.228-.362a.2.2,0,0,0,.212-.223" transform="translate(-205.204 -196.797)" fill="#04bfad"/>
  <path id="path4390" d="M992.685,119.82a.585.585,0,0,1-.585-.629.584.584,0,1,1,.585.629m0-1.32a.7.7,0,1,0,.679.7.676.676,0,0,0-.679-.7" transform="translate(-936.77 -111.903)" fill="#04bfad"/>
  <path id="path4394" d="M999.222,123.856v-.251h.173c.089,0,.189.011.189.117,0,.128-.095.134-.2.134Zm.49-.117c0-.167-.1-.239-.3-.239H999.1v.824h.134v-.351h.128l.212.351h.156l-.228-.362a.208.208,0,0,0,.212-.223" transform="translate(-943.474 -116.625)" fill="#04bfad"/>
  <path id="path4398" d="M7.745,5.061l-.262-.746-2.249-3,.4-.1L9.5,4.559l2.277-.651a3.476,3.476,0,0,1,.8-.084A6.564,6.564,0,0,0,.14,7.572L5.591,5.679Z" transform="translate(-0.065 -0.017)" fill="#04bfad"/>
  <path id="path4402" d="M15.034,79a3.686,3.686,0,0,1-.785.4l-2.283.651-1.52,4.889-.4.128.323-3.731-.178-.774-2.138.612L2.4,82.491A6.568,6.568,0,1,0,15.034,79" transform="translate(-2.27 -74.602)" fill="#04bfad"/>
  <path id="path4406" d="M9.151,26.161l.178.774-.323,3.731.4-.128,1.52-4.889L13.2,25a3.444,3.444,0,0,0,.785-.4c-.072-.2-.15-.4-.239-.59a3.169,3.169,0,0,0-.8.084l-2.277.651L6.8,21.4l-.4.1,2.244,3,.262.746-2.155.618L1.3,27.759c.017.111.039.228.061.34l5.651-1.331,2.138-.607Z" transform="translate(-1.231 -20.209)" fill="#fff"/>
</svg>
