<svg xmlns="http://www.w3.org/2000/svg" width="214.026" height="34.98" viewBox="0 0 214.026 34.98">
  <g id="hustler1" transform="translate(0 -0.02)">
    <path id="Path_2" data-name="Path 2" d="M24.543,26.986a33.36,33.36,0,0,1-13.394-2.78,1.242,1.242,0,0,1-.642-1.636,1.2,1.2,0,0,1,1.6-.654,31.486,31.486,0,0,0,24.944,0,1.227,1.227,0,0,1,1.6.654,1.271,1.271,0,0,1-.642,1.636,35.18,35.18,0,0,1-13.474,2.78Z" fill="#fff"/>
    <path id="Path_3" data-name="Path 3" d="M24.7,35a54.849,54.849,0,0,1-9.7-.819L7.7,32.956a4.4,4.4,0,0,1-3.208,1.472A4.5,4.5,0,0,1,.08,29.93a4.56,4.56,0,0,1,1.283-3.19,107.769,107.769,0,0,1-.08-18.317A4.56,4.56,0,0,1,0,5.232,4.494,4.494,0,0,1,4.411.736,4.38,4.38,0,0,1,7.539,2.045L15,.817a61.43,61.43,0,0,1,19.73,0l6.657,1.145A4.341,4.341,0,0,1,44.435.653,4.485,4.485,0,0,1,47.8,8.013a105.127,105.127,0,0,1,0,18.809,4.4,4.4,0,0,1,1.043,2.944,4.494,4.494,0,0,1-4.411,4.5,4.32,4.32,0,0,1-3.208-1.39L34.65,34.018A50.052,50.052,0,0,1,24.7,35ZM7.138,30.337H7.3l8.021,1.39a56.569,56.569,0,0,0,18.929,0L41.466,30.5a1.186,1.186,0,0,1,1.2.573,2.172,2.172,0,0,0,1.685.981,2.005,2.005,0,0,0,2.005-2.044,2.03,2.03,0,0,0-.722-1.554,1.075,1.075,0,0,1-.4-1.063,98.64,98.64,0,0,0,0-19.463,1.372,1.372,0,0,1,.4-1.063,2.03,2.03,0,0,0,.723-1.553,2.006,2.006,0,0,0-2.005-2.045,1.842,1.842,0,0,0-1.6.9,1.132,1.132,0,0,1-1.2.49l-7.218-1.39a56.57,56.57,0,0,0-18.929,0L7.3,4.58a1.134,1.134,0,0,1-1.2-.491,2.08,2.08,0,0,0-1.685-.9A2.006,2.006,0,0,0,2.407,5.234a1.894,1.894,0,0,0,.882,1.635,1.194,1.194,0,0,1,.482,1.145,107.982,107.982,0,0,0,0,19.054,1.5,1.5,0,0,1-.482,1.145,2.014,2.014,0,0,0,1.123,3.68A1.8,1.8,0,0,0,6.1,30.911a1.362,1.362,0,0,1,1.042-.572Z" fill="#fff"/>
    <g id="Group_3" data-name="Group 3">
      <path id="Path_1" data-name="Path 1" d="M75.794,26.5H72.987l-3.77-6.623h-4.01V26.5H62.721V8.505h6.256a7.693,7.693,0,0,1,4.972,1.472,5.1,5.1,0,0,1,1.845,4.17A5.208,5.208,0,0,1,74.751,17.5a6.124,6.124,0,0,1-2.887,1.963l3.93,7.032ZM65.127,10.8v7.032h3.69a4.932,4.932,0,0,0,3.127-.9,3.253,3.253,0,0,0,1.123-2.7c0-2.29-1.443-3.435-4.25-3.435h-3.69ZM83.253,26.822a6.041,6.041,0,0,1-4.491-1.8A5.793,5.793,0,0,1,77,20.608a5.794,5.794,0,0,1,1.765-4.416,6.174,6.174,0,0,1,4.491-1.718,5.988,5.988,0,0,1,4.412,1.718,5.793,5.793,0,0,1,1.764,4.416,5.793,5.793,0,0,1-1.764,4.415,5.746,5.746,0,0,1-4.412,1.8Zm-2.807-3.27a4.016,4.016,0,0,0,5.615,0A4,4,0,0,0,87.1,20.608a4.324,4.324,0,0,0-1.123-2.944,3.54,3.54,0,0,0-2.807-1.145,3.832,3.832,0,0,0-2.807,1.145,4.329,4.329,0,0,0-1.123,2.944,4.827,4.827,0,0,0,1.2,2.943Zm16.844,3.27a6.041,6.041,0,0,1-4.492-1.8,5.793,5.793,0,0,1-1.765-4.415A5.794,5.794,0,0,1,92.8,16.192a6.174,6.174,0,0,1,4.491-1.718,5.988,5.988,0,0,1,4.412,1.718,5.793,5.793,0,0,1,1.764,4.416,5.793,5.793,0,0,1-1.764,4.415,5.867,5.867,0,0,1-4.412,1.8Zm-2.808-3.27a4.014,4.014,0,0,0,5.614,0,4,4,0,0,0,1.043-2.943,4.329,4.329,0,0,0-1.123-2.944,3.54,3.54,0,0,0-2.807-1.145A3.832,3.832,0,0,0,94.4,17.664a4.329,4.329,0,0,0-1.123,2.944,4.827,4.827,0,0,0,1.2,2.943Zm26.468-9.159a4.551,4.551,0,0,1,3.529,1.471,6.041,6.041,0,0,1,1.363,4.171v6.46h-2.486V20.444a4.328,4.328,0,0,0-.8-2.862,2.775,2.775,0,0,0-2.246-.982,2.88,2.88,0,0,0-2.406,1.145,4.89,4.89,0,0,0-.8,2.944v5.888h-2.406V20.444a4.328,4.328,0,0,0-.8-2.862,2.777,2.777,0,0,0-2.246-.982,2.878,2.878,0,0,0-2.406,1.145,4.912,4.912,0,0,0-.882,2.944v5.888h-2.407V14.637H108.2v2.454a4.208,4.208,0,0,1,4.171-2.7,4.311,4.311,0,0,1,4.251,2.7,4.49,4.49,0,0,1,4.331-2.7Zm14.276,0a4.551,4.551,0,0,1,3.529,1.471,6.015,6.015,0,0,1,1.284,4.171v6.46h-2.487V20.444a4.322,4.322,0,0,0-.8-2.862,2.771,2.771,0,0,0-2.245-.982,2.881,2.881,0,0,0-2.407,1.145,4.919,4.919,0,0,0-.882,2.944v5.888H128.81V8.587h2.406v8.095a4.235,4.235,0,0,1,4.01-2.29ZM152.07,25.269a5.2,5.2,0,0,1-3.931,1.553,5.086,5.086,0,0,1-3.93-1.553,5.552,5.552,0,0,1-1.523-4.17V14.638h2.406V21.1a3.687,3.687,0,0,0,.8,2.535,3.058,3.058,0,0,0,4.491,0,3.686,3.686,0,0,0,.8-2.535v-6.46h2.406V21.1a5.675,5.675,0,0,1-1.523,4.17Zm8.742,1.553a6.2,6.2,0,0,1-3.529-.98,4.108,4.108,0,0,1-1.684-3.027l2.085-.409a3.179,3.179,0,0,0,4.812,2.045,1.445,1.445,0,0,0,.722-1.227,1.311,1.311,0,0,0-.642-1.145,6.461,6.461,0,0,0-1.764-.572l-.642-.082c-2.646-.409-4.01-1.635-4.01-3.6a2.98,2.98,0,0,1,1.2-2.535,5.277,5.277,0,0,1,3.128-.9c2.647,0,4.251,1.145,4.732,3.517l-2.085.409a2.364,2.364,0,0,0-2.486-1.963,2.73,2.73,0,0,0-1.444.409,1.31,1.31,0,0,0-.642,1.145,1.355,1.355,0,0,0,.722,1.227,7.616,7.616,0,0,0,2.005.572l.642.082c2.406.409,3.689,1.553,3.689,3.434a3.21,3.21,0,0,1-1.363,2.7,6.374,6.374,0,0,1-3.449.9Zm13.956-12.1v2.126H171.72v9.731h-2.326V16.846h-2.647V14.72h2.647V10.63h2.326v4.09ZM176.693,26.5V8.505H179.1v17.99h-2.406Zm10.988-1.717a3.581,3.581,0,0,0,3.449-2.208l1.844.736a4.811,4.811,0,0,1-2.005,2.535,5.635,5.635,0,0,1-3.368.9,5.988,5.988,0,0,1-4.412-1.718,6.155,6.155,0,0,1-1.764-4.5,6.537,6.537,0,0,1,1.6-4.5,5.5,5.5,0,0,1,4.251-1.717,5.444,5.444,0,0,1,4.09,1.553,5.231,5.231,0,0,1,1.524,3.926,8.311,8.311,0,0,1-.16,1.308h-8.983a4.652,4.652,0,0,0,1.2,2.7,4.148,4.148,0,0,0,2.727.981Zm-.4-8.423a2.936,2.936,0,0,0-2.246.818,4.142,4.142,0,0,0-1.123,2.208h6.657a3.187,3.187,0,0,0-1.043-2.208A3.139,3.139,0,0,0,187.28,16.355Zm14.6-1.962a6.511,6.511,0,0,1,1.043.163l-.481,2.535a2.1,2.1,0,0,0-.963-.245,3.132,3.132,0,0,0-2.566,1.226,5.8,5.8,0,0,0-.963,3.6v4.824h-2.486V14.638h2.326v2.944a5.137,5.137,0,0,1,1.6-2.372,3.807,3.807,0,0,1,2.486-.818Z" fill="#fff"/>
      <path id="Path_4" data-name="Path 4" d="M209.213,26.63a6.193,6.193,0,0,1-3.529-.981A4.111,4.111,0,0,1,204,22.623l2.085-.409a3.182,3.182,0,0,0,4.813,2.045,1.45,1.45,0,0,0,.722-1.227,1.311,1.311,0,0,0-.642-1.145,6.466,6.466,0,0,0-1.765-.573l-.641-.081c-2.647-.41-4.011-1.636-4.011-3.6a2.98,2.98,0,0,1,1.2-2.536,5.274,5.274,0,0,1,3.128-.9c2.646,0,4.25,1.145,4.732,3.516l-2.086.41a2.363,2.363,0,0,0-2.486-1.963,2.726,2.726,0,0,0-1.444.409,1.31,1.31,0,0,0-.641,1.144,1.353,1.353,0,0,0,.721,1.227,7.587,7.587,0,0,0,2.006.572l.641.082c2.406.41,3.69,1.554,3.69,3.435a3.209,3.209,0,0,1-1.364,2.7,6.363,6.363,0,0,1-3.449.9Z" fill="#fff"/>
    </g>
  </g>
</svg>
